<svg xmlns="http://www.w3.org/2000/svg" width="326.969" height="60.125" viewBox="0 0 326.969 60.125">
  <defs>
    <style>
      .cls-1 {
        fill-rule: evenodd;
      }
    </style>
  </defs>
  <path id="BELLA_FACES" data-name="BELLA FACES" class="cls-1" d="M30.72,36.491a7.975,7.975,0,0,0,3.288-2.928A8.3,8.3,0,0,0,35.232,29a7.474,7.474,0,0,0-3.144-6.384q-3.144-2.3-8.9-2.3H8.112v33.6H24.144q6.288,0,9.576-2.352a7.765,7.765,0,0,0,3.288-6.72,8.471,8.471,0,0,0-1.68-5.4,8.615,8.615,0,0,0-4.608-2.952h0ZM22.752,24.2a9.994,9.994,0,0,1,5.688,1.368,4.555,4.555,0,0,1,1.992,4.008,4.554,4.554,0,0,1-1.992,4.008,9.994,9.994,0,0,1-5.688,1.368h-9.84V24.2h9.84Zm1.2,25.824H12.912V38.843h11.04q8.208,0,8.208,5.616A4.677,4.677,0,0,1,30.1,48.683a11.365,11.365,0,0,1-6.144,1.344h0Zm25.3-.288V38.891H66.1v-4.08H49.248V24.491H68.16V20.315H44.448v33.6H68.832V49.739H49.248Zm27.36,4.176H99.6V49.739H81.408V20.315h-4.8v33.6Zm28.511,0h22.992V49.739H109.919V20.315h-4.8v33.6Zm53.76,0h5.04l-15.264-33.6H143.9l-15.216,33.6h4.944l3.7-8.4h17.856Zm-19.872-12.24,7.248-16.464L153.5,41.675h-14.5Zm66.527-17.184V20.315H181.822v33.6h4.8V40.331H203.47V36.2H186.622V24.491h18.912ZM235.87,53.915h5.04l-15.264-33.6h-4.752l-15.216,33.6h4.944l3.7-8.4h17.856ZM216,41.675l7.248-16.464,7.248,16.464H216ZM260.446,54.3a18.912,18.912,0,0,0,7.224-1.344,14.926,14.926,0,0,0,5.592-3.936L270.142,46a12.544,12.544,0,0,1-9.456,4.032,13.692,13.692,0,0,1-6.768-1.68,12.182,12.182,0,0,1-4.728-4.632,13.634,13.634,0,0,1,0-13.2,12.187,12.187,0,0,1,4.728-4.632,13.7,13.7,0,0,1,6.768-1.68,12.519,12.519,0,0,1,9.456,3.984l3.12-3.024a14.742,14.742,0,0,0-5.568-3.912,19.039,19.039,0,0,0-7.2-1.32,18.686,18.686,0,0,0-9.12,2.232,16.38,16.38,0,0,0-6.384,6.144,17.029,17.029,0,0,0-2.3,8.808,17.028,17.028,0,0,0,2.3,8.808,16.419,16.419,0,0,0,6.36,6.144,18.549,18.549,0,0,0,9.1,2.232h0Zm24.48-4.56V38.891h16.848v-4.08H284.926V24.491h18.912V20.315H280.126v33.6H304.51V49.739H284.926Zm37.152,4.56a18.071,18.071,0,0,0,7.2-1.272,9.644,9.644,0,0,0,4.368-3.456,8.579,8.579,0,0,0,1.44-4.824,7.332,7.332,0,0,0-1.656-5.04,10.264,10.264,0,0,0-3.96-2.784,47.079,47.079,0,0,0-6.1-1.824,44.306,44.306,0,0,1-4.632-1.272,7.98,7.98,0,0,1-2.856-1.68,3.673,3.673,0,0,1-1.152-2.808,4.556,4.556,0,0,1,2.04-3.84q2.038-1.487,6.12-1.488a16.864,16.864,0,0,1,4.7.7,17.431,17.431,0,0,1,4.512,2.04l1.584-3.84A15.594,15.594,0,0,0,328.75,20.7a22.659,22.659,0,0,0-5.856-.768,17.422,17.422,0,0,0-7.152,1.3,9.721,9.721,0,0,0-4.3,3.456,8.642,8.642,0,0,0-1.416,4.848,7.5,7.5,0,0,0,1.656,5.112,10.1,10.1,0,0,0,3.984,2.808,48.013,48.013,0,0,0,6.12,1.824q3.024,0.72,4.68,1.3a7.551,7.551,0,0,1,2.784,1.656,3.716,3.716,0,0,1,1.128,2.808,4.366,4.366,0,0,1-2.064,3.768q-2.066,1.416-6.24,1.416a18.073,18.073,0,0,1-6.168-1.08,14.687,14.687,0,0,1-4.92-2.808l-1.776,3.744a15.029,15.029,0,0,0,5.544,3.048,22.977,22.977,0,0,0,7.32,1.176h0ZM19.692,80.077a15.3,15.3,0,0,0,4.665-.677,10,10,0,0,0,3.612-1.983l-2.015-1.523a9.324,9.324,0,0,1-6.107,2.031,10.881,10.881,0,0,1-4.371-.846,7.307,7.307,0,0,1-3.053-2.333,5.572,5.572,0,0,1,0-6.649,7.31,7.31,0,0,1,3.053-2.333,10.888,10.888,0,0,1,4.371-.846,9.319,9.319,0,0,1,6.107,2.007L27.969,65.4a9.882,9.882,0,0,0-3.6-1.971,15.406,15.406,0,0,0-4.65-.665,14.863,14.863,0,0,0-5.89,1.124A9.89,9.89,0,0,0,9.71,66.984a7.359,7.359,0,0,0,0,8.874,9.9,9.9,0,0,0,4.108,3.095,14.751,14.751,0,0,0,5.875,1.124h0Zm22.041,0a14.865,14.865,0,0,0,5.89-1.124,9.889,9.889,0,0,0,4.123-3.095,7.359,7.359,0,0,0,0-8.874,9.893,9.893,0,0,0-4.123-3.095,14.865,14.865,0,0,0-5.89-1.124,14.945,14.945,0,0,0-5.921,1.124A9.961,9.961,0,0,0,31.673,67a7.263,7.263,0,0,0,0,8.85,9.957,9.957,0,0,0,4.139,3.107,14.945,14.945,0,0,0,5.921,1.124h0Zm0-2.152a10.687,10.687,0,0,1-4.324-.846,7.321,7.321,0,0,1-3.038-2.333,5.572,5.572,0,0,1,0-6.649,7.324,7.324,0,0,1,3.038-2.333,10.694,10.694,0,0,1,4.325-.846,10.478,10.478,0,0,1,4.294.846A7.363,7.363,0,0,1,49.033,68.1a5.572,5.572,0,0,1,0,6.649,7.359,7.359,0,0,1-3.007,2.333,10.472,10.472,0,0,1-4.294.846h0ZM64.3,80.077a14.619,14.619,0,0,0,4.65-.641A6.2,6.2,0,0,0,71.772,77.7a3.678,3.678,0,0,0,.93-2.43,3.214,3.214,0,0,0-1.069-2.539,6.88,6.88,0,0,0-2.558-1.4,37.059,37.059,0,0,0-3.937-.919q-1.891-.338-2.992-0.641a5.613,5.613,0,0,1-1.845-.846,1.677,1.677,0,0,1-.744-1.415,2.208,2.208,0,0,1,1.318-1.934,8.2,8.2,0,0,1,3.953-.75,13.761,13.761,0,0,1,3.038.351A12.985,12.985,0,0,1,70.78,66.2L71.8,64.264a11.622,11.622,0,0,0-3.193-1.112,18.539,18.539,0,0,0-3.782-.387,14.081,14.081,0,0,0-4.619.653,6.219,6.219,0,0,0-2.775,1.741A3.7,3.7,0,0,0,56.52,67.6a3.279,3.279,0,0,0,1.069,2.575,6.766,6.766,0,0,0,2.573,1.415,37.893,37.893,0,0,0,3.953.919q1.953,0.363,3.022.653a5.29,5.29,0,0,1,1.8.834,1.688,1.688,0,0,1,.728,1.415,2.134,2.134,0,0,1-1.333,1.9,8.832,8.832,0,0,1-4.03.713,14.663,14.663,0,0,1-3.983-.544,10.41,10.41,0,0,1-3.178-1.415L55.993,77.95a10.719,10.719,0,0,0,3.581,1.535,18.7,18.7,0,0,0,4.727.592h0Zm36.022-.193-0.031-16.926H97.749l-8.928,11.9-9.052-11.9H77.227V79.884H80.2V67.625l7.843,10.2h1.426l7.843-10.276,0.031,12.332h2.976Zm9.61-2.1V72.316h10.881V70.26H109.932v-5.2h12.214v-2.1H106.832V79.884H122.58v-2.1H109.932Zm6.479-19.344L112.2,61.58h2.79l5.208-3.143m11.718,21.448h3.069V65.061h7.44v-2.1H124.471v2.1h7.44V79.884Zm13.887,0h3.1V62.958h-3.1V79.884Zm19.313,0.193a15.3,15.3,0,0,0,4.666-.677,10,10,0,0,0,3.611-1.983l-2.015-1.523a9.322,9.322,0,0,1-6.107,2.031,10.881,10.881,0,0,1-4.371-.846,7.3,7.3,0,0,1-3.053-2.333,5.57,5.57,0,0,1,0-6.649,7.307,7.307,0,0,1,3.053-2.333,10.888,10.888,0,0,1,4.371-.846,9.318,9.318,0,0,1,6.107,2.007l2.015-1.523a9.884,9.884,0,0,0-3.6-1.971,15.4,15.4,0,0,0-4.65-.665,14.865,14.865,0,0,0-5.89,1.124,9.888,9.888,0,0,0-4.123,3.095,7.359,7.359,0,0,0,0,8.874,9.9,9.9,0,0,0,4.108,3.095,14.748,14.748,0,0,0,5.874,1.124h0Zm22.041,0a14.865,14.865,0,0,0,5.89-1.124,9.891,9.891,0,0,0,4.123-3.095,7.359,7.359,0,0,0,0-8.874,9.894,9.894,0,0,0-4.123-3.095,16.07,16.07,0,0,0-11.811,0A9.958,9.958,0,0,0,177.093,67a7.261,7.261,0,0,0,0,8.85,9.954,9.954,0,0,0,4.138,3.107,14.943,14.943,0,0,0,5.921,1.124h0Zm0-2.152a10.683,10.683,0,0,1-4.324-.846,7.318,7.318,0,0,1-3.038-2.333,5.57,5.57,0,0,1,0-6.649,7.321,7.321,0,0,1,3.038-2.333,10.69,10.69,0,0,1,4.324-.846,10.481,10.481,0,0,1,4.294.846,7.363,7.363,0,0,1,3.007,2.333,5.575,5.575,0,0,1,0,6.649,7.36,7.36,0,0,1-3.007,2.333,10.474,10.474,0,0,1-4.294.846h0Zm22.568,2.152a14.621,14.621,0,0,0,4.65-.641,6.2,6.2,0,0,0,2.821-1.741,3.678,3.678,0,0,0,.93-2.43,3.215,3.215,0,0,0-1.07-2.539,6.877,6.877,0,0,0-2.557-1.4,37.082,37.082,0,0,0-3.937-.919q-1.891-.338-2.992-0.641a5.618,5.618,0,0,1-1.844-.846,1.677,1.677,0,0,1-.744-1.415,2.209,2.209,0,0,1,1.317-1.934,8.2,8.2,0,0,1,3.953-.75,13.763,13.763,0,0,1,3.038.351A13,13,0,0,1,216.2,66.2l1.023-1.934a11.625,11.625,0,0,0-3.193-1.112,18.54,18.54,0,0,0-3.782-.387,14.08,14.08,0,0,0-4.619.653,6.225,6.225,0,0,0-2.775,1.741,3.7,3.7,0,0,0-.914,2.442,3.279,3.279,0,0,0,1.069,2.575,6.771,6.771,0,0,0,2.573,1.415,37.944,37.944,0,0,0,3.953.919q1.953,0.363,3.022.653a5.283,5.283,0,0,1,1.8.834,1.687,1.687,0,0,1,.729,1.415,2.135,2.135,0,0,1-1.333,1.9,8.832,8.832,0,0,1-4.03.713,14.67,14.67,0,0,1-3.984-.544,10.411,10.411,0,0,1-3.177-1.415l-1.147,1.886a10.716,10.716,0,0,0,3.58,1.535,18.7,18.7,0,0,0,4.728.592h0Z" transform="translate(-8.125 -19.938)"/>
</svg>
